<svg xmlns="http://www.w3.org/2000/svg" width="800" height="600" viewBox="0 0 800 600"><style>.a{fill:none;opacity:0.6;stroke-width:2;stroke:#FFF;}.b{stop-color:#29ABE2;}.c{stop-color:#BDCCD4;}.d{fill:#FFF;stroke-width:2;stroke:#FFF;}.e{stop-color:#4F00BC;stop-opacity:0.7;}.f{stop-color:#3F49CC;stop-opacity:0.8;}.g{stop-color:#337ED8;stop-opacity:0.9;}.h{stop-color:#2C9FDF;}.i{stop-color:#FFF;}</style><radialGradient cx="515.4" cy="301.4" r="175.7" gradientTransform="matrix(1 0 0 1.2 0 -60.2856)" gradientUnits="userSpaceOnUse"><stop offset="0" stop-color="#4F00BC"/><stop offset="1" class="b"/></radialGradient><radialGradient cx="515.4" cy="301.4" r="176.7" gradientUnits="userSpaceOnUse"><stop offset="0" class="c"/><stop offset="1" class="b"/></radialGradient><path d="M458 109.8c0-15.8-12.7-28.4-28.5-28.4 -15.8 0-29.2 13-29.2 28.8l-0.3 308c2.7 25.4 13.8 50.1 33.2 69.5 45.2 45.2 118.4 45.2 163.6 0 45.2-45.2 45.2-118.4 0-163.6 -37.5-37.5-94.3-43.9-138.4-19.1L458 109.8z" style="fill:url(#SVGID_1_);stroke-width:2;stroke:url(#SVGID_2_)"/><circle cx="511.4" cy="407.7" r="28.6" style="fill:#FFF;opacity:0.9;stroke-width:2;stroke:#FFF"/><path d="M614.7 406.9c0.8-12.4-3.3-30.1-9.6-43.2 -1-1.8-5.4-11.6-13.5-6.6 -8.1 4.9-1.8 14.9-1.8 14.9 4.9 10.2 8.2 22.8 7.5 34.3 -0.2 3.2 1.8 6.8 8.7 6.8C612.8 413.1 614.4 410.8 614.7 406.9z" class="d"/><path d="M607.5 444.2c-0.9 1.8-5.2 11.7-13.4 6.9 -8.2-4.8-2.1-14.9-2.1-14.9 4.7-10.3 4.1-5 11-5.2C609.8 430.9 613.5 431 607.5 444.2z" class="d"/><path d="M579.4 327.1c-1.6-1.4-9.1-8.9-15-1.4 -5.8 7.5 3.6 14.6 3.6 14.6 6.2 5.8 9.1 3.7 12.1 0.7C583.2 338 587.5 335.2 579.4 327.1z" class="d"/><radialGradient cx="652.8" cy="495.2" r="28.6" gradientUnits="userSpaceOnUse"><stop offset="0" class="e"/><stop offset="0.3582" class="f"/><stop offset="0.656" class="g"/><stop offset="0.8783" class="h"/><stop offset="1" class="b"/></radialGradient><radialGradient cx="652.8" cy="495.2" r="29.6" gradientUnits="userSpaceOnUse"><stop offset="0" class="i"/><stop offset="1" class="c"/></radialGradient><path d="M681.4 495.2c0 15.8-12.8 28.6-28.6 28.6 -15.8 0-28.6-12.8-28.6-28.6 0-15.8 12.8-28.6 28.6-28.6C668.6 466.5 681.4 479.4 681.4 495.2z" style="fill:url(#SVGID_3_);stroke-width:2;stroke:url(#SVGID_4_)"/><radialGradient cx="147.2" cy="301.2" r="157.7" gradientUnits="userSpaceOnUse"><stop offset="0" class="e"/><stop offset="0.3582" class="f"/><stop offset="0.656" class="g"/><stop offset="0.8783" class="h"/><stop offset="1" class="b"/></radialGradient><radialGradient cx="147.2" cy="301.2" r="158.5" gradientUnits="userSpaceOnUse"><stop offset="0" class="i"/><stop offset="1" class="c"/></radialGradient><path d="M175.3 493.8c0 15.8-12.4 28.6-28.2 28.6 -15.8 0-28.1-12.8-28.1-28.6V108.6c0-15.8 12.3-28.6 28.1-28.6 15.8 0 28.3 12.8 28.3 28.6L175.3 493.8z" style="fill:url(#SVGID_5_);stroke-width:2;stroke:url(#SVGID_6_)"/><radialGradient cx="273.5" cy="300.6" r="167.1" gradientUnits="userSpaceOnUse"><stop offset="0" class="e"/><stop offset="0.3582" class="f"/><stop offset="0.656" class="g"/><stop offset="0.8783" class="h"/><stop offset="1" class="b"/></radialGradient><radialGradient cx="273.5" cy="300.6" r="168" gradientUnits="userSpaceOnUse"><stop offset="0" class="i"/><stop offset="1" class="c"/></radialGradient><path d="M190.3 292.1l80.3-192.8c5.6-14.8 22.1-22.3 36.9-16.7 14.8 5.6 22.3 22.1 16.7 36.9l-79 189 108.7 165.1c10 12.2 8.2 30.3-4 40.3 -12.2 10-30.3 8.2-40.3-4l-119.4-180.9C182.5 315.1 190.3 292.1 190.3 292.1z" style="fill:url(#SVGID_7_);stroke-width:2;stroke:url(#SVGID_8_)"/></svg>